<svg width="163" height="28" viewBox="0 0 163 28" fill="none" xmlns="http://www.w3.org/2000/svg">
<rect width="28" height="28" rx="4" fill="#635DEF"/>
<path d="M15 4L5 16H14L13 24L23 12H14L15 4Z" stroke="white" stroke-width="1.25" stroke-linecap="round" stroke-linejoin="round"/>
<path d="M40.2188 22.2813C42.3125 22.2813 43.4063 21.1562 43.7813 20.375H43.875V22H45.7188V14.0938C45.7188 10.2812 42.8125 9.84375 41.2813 9.84375C39.4688 9.84375 37.4062 10.4687 36.4688 12.6562L38.2188 13.2812C38.625 12.4062 39.5859 11.4687 41.3438 11.4687C43.0391 11.4687 43.875 12.3672 43.875 13.9062V13.9687C43.875 14.8594 42.9687 14.7812 40.7813 15.0625C38.5547 15.3516 36.125 15.8437 36.125 18.5937C36.125 20.9375 37.9375 22.2813 40.2188 22.2813ZM40.5 20.625C39.0313 20.625 37.9688 19.9687 37.9688 18.6875C37.9688 17.2812 39.25 16.8438 40.6875 16.6562C41.4688 16.5625 43.5625 16.3437 43.875 15.9687V17.6562C43.875 19.1562 42.6875 20.625 40.5 20.625ZM50.9277 6H49.084V22H50.9277V6ZM54.3047 22H56.1484V10H54.3047V22ZM55.2422 8C55.9609 8 56.5547 7.4375 56.5547 6.75C56.5547 6.0625 55.9609 5.5 55.2422 5.5C54.5234 5.5 53.9297 6.0625 53.9297 6.75C53.9297 7.4375 54.5234 8 55.2422 8ZM69.3379 10H67.3379L64.0254 19.5625H63.9004L60.5879 10H58.5879L63.0254 22H64.9004L69.3379 10ZM76.373 22.25C78.8105 22.25 80.5918 21.0312 81.1543 19.2188L79.373 18.7187C78.9043 19.9687 77.8184 20.5938 76.373 20.5938C74.209 20.5938 72.7168 19.1953 72.6309 16.625H81.3418V15.8437C81.3418 11.375 78.6855 9.84375 76.1855 9.84375C72.9355 9.84375 70.7793 12.4062 70.7793 16.0938C70.7793 19.7812 72.9043 22.25 76.373 22.25ZM72.6309 15.0312C72.7559 13.1641 74.0762 11.5 76.1855 11.5C78.1855 11.5 79.4668 13 79.4668 15.0312H72.6309ZM89.3965 22C94.2715 22 97.0918 18.9766 97.0918 13.9766C97.0918 9 94.2715 6 89.5605 6H84.2168V22H89.3965ZM86.6309 19.8906V8.10937H89.4121C92.9121 8.10937 94.7168 10.2031 94.7168 13.9766C94.7168 17.7656 92.9121 19.8906 89.2637 19.8906H86.6309ZM104.961 22.2422C108.344 22.2422 110.555 19.7656 110.555 16.0547C110.555 12.3203 108.344 9.84375 104.961 9.84375C101.578 9.84375 99.3672 12.3203 99.3672 16.0547C99.3672 19.7656 101.578 22.2422 104.961 22.2422ZM104.969 20.2812C102.758 20.2812 101.727 18.3516 101.727 16.0469C101.727 13.75 102.758 11.7969 104.969 11.7969C107.164 11.7969 108.195 13.75 108.195 16.0469C108.195 18.3516 107.164 20.2812 104.969 20.2812ZM113.162 22H115.498V14.6016C115.498 12.9844 116.631 11.8594 117.959 11.8594C119.256 11.8594 120.154 12.7188 120.154 14.0234V22H122.482V14.3516C122.482 12.9062 123.365 11.8594 124.889 11.8594C126.123 11.8594 127.139 12.5469 127.139 14.1719V22H129.475V13.9531C129.475 11.2109 127.943 9.84375 125.771 9.84375C124.045 9.84375 122.748 10.6719 122.17 11.9531H122.045C121.521 10.6406 120.42 9.84375 118.818 9.84375C117.232 9.84375 116.053 10.6328 115.553 11.9531H115.404V10H113.162V22ZM136.098 22.2656C138.082 22.2656 139.199 21.2578 139.645 20.3594H139.738V22H142.02V14.0313C142.02 10.5391 139.27 9.84375 137.363 9.84375C135.191 9.84375 133.191 10.7187 132.41 12.9062L134.605 13.4062C134.949 12.5547 135.824 11.7344 137.395 11.7344C138.902 11.7344 139.676 12.5234 139.676 13.8828V13.9375C139.676 14.7891 138.801 14.7734 136.645 15.0234C134.371 15.2891 132.043 15.8828 132.043 18.6094C132.043 20.9688 133.816 22.2656 136.098 22.2656ZM136.605 20.3906C135.285 20.3906 134.332 19.7969 134.332 18.6406C134.332 17.3906 135.441 16.9453 136.793 16.7656C137.551 16.6641 139.348 16.4609 139.684 16.125V17.6719C139.684 19.0937 138.551 20.3906 136.605 20.3906ZM145.131 22H147.467V10H145.131V22ZM146.311 8.14844C147.115 8.14844 147.787 7.52344 147.787 6.75781C147.787 5.99219 147.115 5.35937 146.311 5.35937C145.498 5.35937 144.834 5.99219 144.834 6.75781C144.834 7.52344 145.498 8.14844 146.311 8.14844ZM152.945 14.875C152.945 12.9609 154.117 11.8672 155.742 11.8672C157.328 11.8672 158.289 12.9062 158.289 14.6484V22H160.625V14.3672C160.625 11.3984 158.992 9.84375 156.539 9.84375C154.734 9.84375 153.555 10.6797 153 11.9531H152.852V10H150.609V22H152.945V14.875Z" fill="black"/>
</svg>
